{
    "asset" : {
        "generator" : "Khronos glTF Blender I/O v3.4.50",
        "version" : "2.0"
    },
    "scene" : 0,
    "scenes" : [
        {
            "name" : "Scene",
            "nodes" : [
                0
            ]
        }
    ],
    "nodes" : [
        {
            "mesh" : 0,
            "name" : "keyring_2",
            "scale" : [
                -0.10695578157901764,
                -0.10695578157901764,
                -0.10695578157901764
            ],
            "translation" : [
                3.6254429817199707,
                0.6751835346221924,
                3.396040916442871
            ]
        }
    ],
    "meshes" : [
        {
            "name" : "keyring_2",
            "primitives" : [
                {
                    "attributes" : {
                        "POSITION" : 0,
                        "NORMAL" : 1
                    },
                    "indices" : 2
                }
            ]
        }
    ],
    "accessors" : [
        {
            "bufferView" : 0,
            "componentType" : 5126,
            "count" : 13231,
            "max" : [
                75.26801300048828,
                6.022659778594971,
                49.67375946044922
            ],
            "min" : [
                0.12724260985851288,
                0,
                14.879704475402832
            ],
            "type" : "VEC3"
        },
        {
            "bufferView" : 1,
            "componentType" : 5126,
            "count" : 13231,
            "type" : "VEC3"
        },
        {
            "bufferView" : 2,
            "componentType" : 5123,
            "count" : 15120,
            "type" : "SCALAR"
        }
    ],
    "bufferViews" : [
        {
            "buffer" : 0,
            "byteLength" : 158772,
            "byteOffset" : 0,
            "target" : 34962
        },
        {
            "buffer" : 0,
            "byteLength" : 158772,
            "byteOffset" : 158772,
            "target" : 34962
        },
        {
            "buffer" : 0,
            "byteLength" : 30240,
            "byteOffset" : 317544,
            "target" : 34963
        }
    ],
    "buffers" : [
        {
            "byteLength" : 347784,
            "uri" : "data:application/octet-stream;base64,"
        }
    ]
}
